#define HORSE_width 96
#define HORSE_height 64
static unsigned char HORSE_bits[] = {
   0x00, 0x00, 0x00, 0x00, 0x00, 0x00, 0x00, 0x00, 0x00, 0x00, 0x00, 0x00,
   0x00, 0x00, 0x00, 0x00, 0x00, 0x00, 0x00, 0x00, 0x00, 0x00, 0x00, 0x00,
   0x00, 0x00, 0x00, 0x00, 0x00, 0x00, 0x00, 0x00, 0x00, 0x00, 0x00, 0x00,
   0x00, 0x00, 0x00, 0x00, 0x00, 0x00, 0x00, 0x00, 0x00, 0x00, 0x00, 0x00,
   0x00, 0x00, 0x00, 0x00, 0x00, 0x00, 0x00, 0x00, 0x00, 0x00, 0x00, 0x00,
   0x00, 0x00, 0x00, 0x00, 0x00, 0x00, 0x00, 0x00, 0x00, 0x00, 0x00, 0x00,
   0x00, 0x00, 0x00, 0x00, 0x00, 0x00, 0x00, 0x00, 0x00, 0x00, 0x00, 0x00,
   0x00, 0x00, 0x00, 0x00, 0x00, 0x00, 0x00, 0x00, 0x80, 0x01, 0x00, 0x00,
   0x00, 0x00, 0x00, 0x00, 0x00, 0x00, 0x00, 0x00, 0x80, 0x00, 0x00, 0x00,
   0x00, 0x00, 0x00, 0x00, 0x00, 0x00, 0x00, 0x00, 0x80, 0x01, 0x00, 0x00,
   0x00, 0x00, 0x00, 0x00, 0x00, 0x00, 0x00, 0x00, 0xb0, 0x6d, 0x00, 0x00,
   0x00, 0x00, 0x00, 0x00, 0x00, 0x00, 0x00, 0x00, 0xb8, 0xdd, 0x00, 0x00,
   0x00, 0x00, 0x00, 0x00, 0x00, 0x00, 0x00, 0x00, 0xb0, 0x7b, 0x00, 0x00,
   0x00, 0x00, 0x00, 0x00, 0x00, 0x00, 0x00, 0x00, 0xb6, 0xd5, 0x02, 0x00,
   0x00, 0x00, 0x00, 0x00, 0x00, 0x00, 0x00, 0x00, 0xff, 0xff, 0x3e, 0x00,
   0x00, 0x00, 0x00, 0x00, 0x00, 0x00, 0x00, 0x00, 0xb6, 0xdd, 0x3f, 0x00,
   0x18, 0x7e, 0x00, 0x00, 0x00, 0x00, 0x00, 0x40, 0xb7, 0x49, 0x10, 0x00,
   0x10, 0x3e, 0x00, 0x00, 0x00, 0x00, 0x00, 0xe0, 0xff, 0x03, 0x00, 0x00,
   0x08, 0x76, 0x00, 0x00, 0x00, 0x00, 0x00, 0xe0, 0xff, 0x01, 0x00, 0x00,
   0xc0, 0x6e, 0x1b, 0x4c, 0x12, 0x00, 0x00, 0x68, 0xbf, 0x03, 0x00, 0x00,
   0xe0, 0xff, 0x1f, 0xfe, 0xff, 0x01, 0x80, 0xef, 0xf7, 0x01, 0x00, 0x00,
   0x40, 0xed, 0x3b, 0xfc, 0xff, 0x01, 0x80, 0xff, 0xff, 0x03, 0x00, 0x00,
   0x00, 0x00, 0x9c, 0xfe, 0xff, 0x01, 0xa0, 0xfd, 0xff, 0x01, 0x00, 0x00,
   0x00, 0x00, 0xf8, 0xff, 0xff, 0x7f, 0xb7, 0xff, 0xbf, 0x03, 0x00, 0x00,
   0x00, 0x00, 0xfc, 0xff, 0xff, 0xff, 0xff, 0xff, 0xff, 0x03, 0x00, 0x00,
   0x00, 0x00, 0xf8, 0x6d, 0xff, 0xff, 0xff, 0xff, 0xff, 0x01, 0x00, 0x00,
   0x00, 0x00, 0xf8, 0xff, 0xff, 0xff, 0xf7, 0xff, 0xff, 0x03, 0x00, 0x00,
   0x00, 0x00, 0xf8, 0xff, 0xff, 0xff, 0xff, 0xff, 0xff, 0x03, 0x00, 0x00,
   0x00, 0x00, 0xfc, 0xff, 0xff, 0xff, 0xff, 0xff, 0xff, 0x01, 0x00, 0x00,
   0x00, 0x00, 0xf8, 0xff, 0xff, 0xff, 0xff, 0xff, 0xbf, 0x01, 0x00, 0x00,
   0x00, 0x00, 0xf8, 0xff, 0xff, 0xff, 0xff, 0xff, 0x7f, 0x00, 0x00, 0x00,
   0x00, 0x00, 0xf8, 0xff, 0xff, 0xff, 0xff, 0xff, 0x7f, 0x00, 0x00, 0x00,
   0x00, 0x00, 0xc8, 0xfd, 0xff, 0xff, 0xff, 0xff, 0x3f, 0x00, 0x00, 0x00,
   0x00, 0x00, 0xc0, 0xff, 0xff, 0xef, 0xf7, 0xff, 0x7f, 0x00, 0x00, 0x00,
   0x00, 0x00, 0xc0, 0xff, 0xff, 0xff, 0xff, 0xff, 0x3f, 0x00, 0x00, 0x00,
   0x00, 0x00, 0xc0, 0xff, 0xff, 0x7f, 0xff, 0xff, 0x7f, 0x00, 0x00, 0x00,
   0x00, 0x00, 0xd0, 0xff, 0x3f, 0x40, 0xff, 0xff, 0x3f, 0x00, 0x00, 0x00,
   0x00, 0x00, 0xc0, 0xff, 0x7f, 0x02, 0xff, 0xff, 0x7f, 0x00, 0x00, 0x00,
   0x00, 0x00, 0xc0, 0xfd, 0x3f, 0x00, 0xff, 0xff, 0x7f, 0x00, 0x00, 0x00,
   0x00, 0x00, 0xb0, 0x01, 0x3f, 0x00, 0xa4, 0xfd, 0x7f, 0x00, 0x00, 0x00,
   0x00, 0x00, 0xf8, 0x05, 0xbf, 0x00, 0x10, 0xe0, 0xbf, 0x01, 0x00, 0x00,
   0x00, 0x00, 0xf8, 0x21, 0x3f, 0x00, 0x01, 0xe0, 0xff, 0x03, 0x00, 0x00,
   0x00, 0x00, 0xb8, 0x00, 0x3b, 0x01, 0x80, 0xe4, 0xff, 0x03, 0x00, 0x00,
   0x00, 0x00, 0x38, 0x02, 0x38, 0x00, 0x0b, 0xe0, 0x12, 0x0b, 0x00, 0x00,
   0x00, 0x00, 0xb8, 0x00, 0x7a, 0x08, 0x07, 0xe0, 0xc0, 0x1f, 0x00, 0x00,
   0x00, 0x00, 0x19, 0x00, 0x38, 0x00, 0x0e, 0xe0, 0x82, 0x1f, 0x00, 0x00,
   0x00, 0x00, 0x03, 0x00, 0xc0, 0x01, 0x22, 0x64, 0x80, 0x1a, 0x00, 0x00,
   0x00, 0x00, 0x07, 0x00, 0x80, 0x03, 0x78, 0x5c, 0x00, 0xfc, 0x00, 0x00,
   0x00, 0x80, 0x07, 0x00, 0xc0, 0x01, 0x30, 0x1c, 0x00, 0xfd, 0x00, 0x00,
   0x00, 0x6c, 0x10, 0x00, 0x00, 0x09, 0xb0, 0x1a, 0x00, 0xf8, 0x00, 0x00,
   0x00, 0xfe, 0x00, 0x00, 0x00, 0x1c, 0x80, 0x01, 0x00, 0xc0, 0x00, 0x00,
   0x00, 0xfc, 0x00, 0x00, 0x00, 0x1c, 0x80, 0x03, 0x00, 0xe0, 0x00, 0x00,
   0x00, 0x40, 0x00, 0x00, 0x00, 0x0c, 0xc0, 0x03, 0x00, 0xc0, 0x01, 0x00,
   0x00, 0x00, 0x00, 0x00, 0x00, 0xe8, 0x00, 0x09, 0x00, 0x40, 0x00, 0x00,
   0x00, 0x00, 0x00, 0x00, 0x00, 0xe0, 0x00, 0x00, 0x00, 0x00, 0x07, 0x00,
   0x00, 0x00, 0x00, 0x00, 0x00, 0xe0, 0x01, 0x00, 0x00, 0x00, 0x06, 0x00,
   0x00, 0x00, 0x00, 0x00, 0x00, 0x40, 0x00, 0x00, 0x00, 0x00, 0x07, 0x00,
   0x00, 0x00, 0x00, 0x00, 0x00, 0x00, 0x00, 0x00, 0x00, 0x00, 0x00, 0x00,
   0x00, 0x00, 0x00, 0x00, 0x00, 0x00, 0x00, 0x00, 0x00, 0x00, 0x00, 0x00,
   0x00, 0x00, 0x00, 0x00, 0x00, 0x00, 0x00, 0x00, 0x00, 0x00, 0x00, 0x00,
   0x00, 0x00, 0x00, 0x00, 0x00, 0x00, 0x00, 0x00, 0x00, 0x00, 0x00, 0x00,
   0x00, 0x00, 0x00, 0x00, 0x00, 0x00, 0x00, 0x00, 0x00, 0x00, 0x00, 0x00,
   0x00, 0x00, 0x00, 0x00, 0x00, 0x00, 0x00, 0x00, 0x00, 0x00, 0x00, 0x00,
   0x00, 0x00, 0x00, 0x00, 0x00, 0x00, 0x00, 0x00, 0x00, 0x00, 0x00, 0x00 };
