#define VOLGRENLOGO_width 128
#define VOLGRENLOGO_height 50
static unsigned char VOLGRENLOGO_bits[] = {
   0x00, 0x00, 0x00, 0x00, 0x00, 0x00, 0x00, 0x00, 0x00, 0x00, 0x00, 0x00,
   0x00, 0x00, 0x00, 0x00, 0x00, 0x00, 0x00, 0x00, 0x00, 0x00, 0x00, 0x00,
   0x00, 0x00, 0x00, 0x00, 0x00, 0x00, 0x00, 0x00, 0x00, 0x00, 0x00, 0x00,
   0x00, 0x00, 0x00, 0x89, 0x08, 0x00, 0x00, 0x00, 0x00, 0x00, 0x00, 0x00,
   0x00, 0x00, 0x00, 0x00, 0x00, 0x00, 0x54, 0x92, 0xd2, 0x0a, 0x00, 0x00,
   0x00, 0x00, 0x00, 0x00, 0x00, 0x00, 0x00, 0x00, 0x00, 0x40, 0x09, 0x00,
   0x00, 0x50, 0x00, 0x00, 0x00, 0x00, 0x00, 0x00, 0x00, 0x00, 0x00, 0x00,
   0x00, 0x28, 0x01, 0x00, 0x00, 0xa0, 0x05, 0x00, 0x00, 0x00, 0x00, 0x00,
   0x00, 0x00, 0x00, 0x00, 0x00, 0x0a, 0x00, 0x90, 0xaa, 0x56, 0x2a, 0x00,
   0x00, 0x00, 0x00, 0x00, 0x00, 0x00, 0x00, 0x00, 0x80, 0x02, 0x40, 0x25,
   0xa9, 0x4a, 0x49, 0x00, 0x00, 0x00, 0x00, 0x00, 0x00, 0x00, 0x00, 0x00,
   0xa0, 0x00, 0x90, 0xaa, 0x92, 0x54, 0xaa, 0x02, 0x00, 0x00, 0x00, 0x00,
   0x00, 0x00, 0x00, 0x00, 0x20, 0x00, 0xa4, 0x54, 0xaa, 0x52, 0x95, 0x00,
   0x00, 0x00, 0x00, 0x00, 0x00, 0x00, 0x00, 0x00, 0x28, 0x00, 0x2a, 0x49,
   0x81, 0x94, 0xa4, 0x0a, 0x00, 0x00, 0x00, 0x00, 0x00, 0x00, 0x00, 0x00,
   0x08, 0x80, 0x54, 0x55, 0x00, 0xa5, 0xaa, 0x02, 0x00, 0x00, 0x00, 0x00,
   0x00, 0x00, 0x00, 0x00, 0x28, 0x00, 0x49, 0x49, 0x01, 0x28, 0x25, 0x15,
   0x00, 0x00, 0x00, 0x00, 0x00, 0x00, 0x00, 0x00, 0x08, 0x00, 0x95, 0xaa,
   0x00, 0xa0, 0x54, 0x05, 0x00, 0x00, 0x00, 0x00, 0x00, 0x00, 0x00, 0x00,
   0x14, 0x00, 0xaa, 0x94, 0x00, 0x00, 0x4a, 0x0a, 0x00, 0x00, 0x00, 0x00,
   0x00, 0x00, 0x00, 0x00, 0x28, 0x00, 0xa4, 0x52, 0x01, 0x00, 0xa8, 0x02,
   0x00, 0x00, 0x00, 0x00, 0x00, 0x00, 0x00, 0x00, 0x50, 0x00, 0x40, 0x95,
   0x00, 0x00, 0x80, 0x04, 0x00, 0x00, 0x00, 0x00, 0x00, 0x00, 0x00, 0x00,
   0x40, 0x01, 0x00, 0x54, 0x01, 0x00, 0x40, 0x01, 0x00, 0x00, 0x00, 0x00,
   0x00, 0x00, 0x00, 0x00, 0x40, 0x05, 0x00, 0x00, 0x00, 0x00, 0xa8, 0x00,
   0x00, 0x00, 0x00, 0x00, 0x00, 0x00, 0x00, 0x00, 0x00, 0x2a, 0x00, 0x00,
   0x00, 0x00, 0x29, 0x00, 0x00, 0x00, 0x00, 0x00, 0x00, 0x00, 0x00, 0x00,
   0x00, 0x54, 0x01, 0x00, 0x00, 0x50, 0x0a, 0x00, 0x00, 0x00, 0x00, 0x00,
   0x00, 0x00, 0x00, 0x00, 0x00, 0x40, 0x95, 0x00, 0x80, 0x4a, 0x01, 0x00,
   0x00, 0x00, 0x00, 0x00, 0x00, 0x00, 0x00, 0x00, 0x00, 0x00, 0x2a, 0x55,
   0xad, 0x12, 0x00, 0x00, 0x00, 0x00, 0x00, 0x00, 0x00, 0x00, 0x00, 0x00,
   0x00, 0x00, 0x40, 0x55, 0x29, 0x02, 0x00, 0x00, 0x00, 0x00, 0x00, 0x00,
   0x00, 0x00, 0x00, 0x00, 0x00, 0x00, 0x00, 0x00, 0x00, 0x00, 0x00, 0x00,
   0x00, 0x00, 0x00, 0x00, 0x00, 0x00, 0x00, 0x00, 0x00, 0x00, 0x00, 0x00,
   0x00, 0x00, 0x00, 0x00, 0x00, 0x00, 0x00, 0x00, 0x00, 0x00, 0x00, 0x00,
   0x00, 0x00, 0x00, 0x00, 0x00, 0x00, 0x00, 0x00, 0x00, 0x00, 0x00, 0x00,
   0x00, 0x00, 0x00, 0x00, 0x00, 0x00, 0x00, 0x00, 0x00, 0x00, 0x00, 0x00,
   0x00, 0x00, 0x00, 0x00, 0x00, 0x00, 0x00, 0x00, 0x00, 0x00, 0x00, 0x00,
   0x00, 0x00, 0x00, 0x00, 0x00, 0x00, 0x00, 0x00, 0x00, 0x00, 0x00, 0x00,
   0x00, 0x00, 0x00, 0x00, 0x00, 0x00, 0x00, 0x00, 0x00, 0x00, 0x00, 0x00,
   0x00, 0x00, 0x00, 0x00, 0x00, 0x00, 0x00, 0x00, 0x00, 0x00, 0x00, 0x00,
   0x00, 0x00, 0x00, 0x00, 0x0a, 0x40, 0x01, 0x7e, 0x00, 0x0a, 0x00, 0xe0,
   0x0f, 0x50, 0x15, 0x40, 0x55, 0x45, 0x05, 0x28, 0x0f, 0xe0, 0xc1, 0xff,
   0x03, 0x1f, 0x00, 0xfc, 0x7f, 0xf8, 0xff, 0xc0, 0xff, 0xc7, 0x1f, 0x78,
   0x1f, 0xf0, 0xe1, 0xff, 0x07, 0x1f, 0x00, 0xfe, 0x7f, 0xf8, 0xff, 0xc1,
   0xff, 0xc7, 0x1f, 0x78, 0x1f, 0xf0, 0xf1, 0xc3, 0x0f, 0x1f, 0x00, 0x3f,
   0xf0, 0xf8, 0xf0, 0xc3, 0x27, 0xc1, 0x3f, 0x78, 0x1e, 0xf8, 0xf8, 0x00,
   0x1f, 0x1f, 0x80, 0x0f, 0x40, 0x78, 0xe0, 0xc3, 0x03, 0xc0, 0x7f, 0x78,
   0x3e, 0xf8, 0xf8, 0x00, 0x1f, 0x1f, 0x80, 0x0f, 0x00, 0x78, 0xe0, 0xc3,
   0x03, 0xc0, 0x7f, 0x78, 0x3c, 0x78, 0x7c, 0x00, 0x1f, 0x1f, 0xc0, 0x07,
   0x00, 0x78, 0xe0, 0xc3, 0xff, 0xc3, 0xfb, 0x78, 0x7c, 0x7c, 0x7c, 0x00,
   0x3e, 0x1f, 0xc0, 0x07, 0x25, 0xf8, 0xf4, 0xc1, 0xff, 0xc7, 0xf3, 0x7d,
   0x7c, 0x3c, 0x7c, 0x00, 0x3e, 0x1f, 0xc0, 0x87, 0xff, 0xf8, 0xff, 0xc0,
   0xff, 0xc3, 0xe3, 0x7b, 0x78, 0x3e, 0x7c, 0x00, 0x1e, 0x1f, 0xc0, 0x87,
   0x7f, 0xf8, 0x7f, 0xc0, 0x03, 0xc0, 0xe3, 0x7f, 0xf8, 0x1e, 0xf8, 0x00,
   0x1f, 0x1f, 0x80, 0x07, 0xf8, 0xf8, 0x7c, 0xc0, 0x07, 0xc0, 0xc3, 0x7f,
   0xf0, 0x1f, 0xf8, 0x00, 0x1f, 0x1f, 0x80, 0x0f, 0x78, 0x78, 0xf8, 0xc0,
   0x03, 0xc0, 0x83, 0x7f, 0xf0, 0x1f, 0xf8, 0x81, 0x0f, 0x1f, 0x80, 0x1f,
   0xf8, 0x78, 0xf0, 0xc1, 0x03, 0xc0, 0x03, 0x7f, 0xe0, 0x0f, 0xf0, 0xd7,
   0x0f, 0xff, 0x1f, 0x7f, 0x7d, 0x78, 0xf0, 0xc3, 0xff, 0xc7, 0x03, 0x7e,
   0xe0, 0x0f, 0xe0, 0xff, 0x03, 0xff, 0x1f, 0xfe, 0xff, 0x78, 0xc0, 0xc7,
   0xff, 0xc7, 0x03, 0x7e, 0xc0, 0x07, 0x80, 0xff, 0x00, 0xff, 0x3f, 0xf8,
   0x3f, 0x78, 0xc0, 0xef, 0xff, 0xc7, 0x03, 0x7c, 0x00, 0x00, 0x00, 0x04,
   0x00, 0x00, 0x00, 0x00, 0x00, 0x00, 0x00, 0x00, 0x00, 0x00, 0x00, 0x00,
   0x00, 0x00, 0x00, 0x00, 0x00, 0x00, 0x00, 0x00, 0x00, 0x00, 0x00, 0x00,
   0x00, 0x00, 0x00, 0x00, 0x00, 0x00, 0x00, 0x00, 0x00, 0x00, 0x00, 0x00,
   0x00, 0x00, 0x00, 0x00, 0x00, 0x00, 0x00, 0x00 };
