#define VOLVO_LOGO_width 73
#define VOLVO_LOGO_height 64
static unsigned char VOLVO_LOGO_bits[] = {
   0x00, 0x00, 0x00, 0x00, 0x00, 0x00, 0x00, 0x00, 0x00, 0x00, 0x00, 0x00,
   0x00, 0x00, 0x00, 0x00, 0x00, 0x50, 0x1f, 0x00, 0x00, 0x00, 0x00, 0x00,
   0x00, 0x00, 0xe0, 0x02, 0x20, 0x00, 0x00, 0x00, 0x00, 0x00, 0x00, 0x00,
   0x40, 0x00, 0x00, 0x00, 0x00, 0x00, 0x00, 0x00, 0x00, 0x00, 0x80, 0x01,
   0x20, 0x00, 0x00, 0x00, 0x00, 0x00, 0x00, 0x00, 0x00, 0x02, 0x00, 0x00,
   0x00, 0x00, 0x00, 0xe0, 0x55, 0x07, 0x00, 0x02, 0x20, 0x00, 0x00, 0x00,
   0x00, 0x0c, 0x00, 0x68, 0x00, 0x01, 0x00, 0x00, 0x00, 0x00, 0x00, 0x01,
   0x00, 0x80, 0x81, 0x00, 0x20, 0x00, 0x00, 0x00, 0xc0, 0x00, 0x00, 0x00,
   0x24, 0x00, 0x00, 0x00, 0x00, 0x00, 0x20, 0x00, 0x00, 0x00, 0x18, 0x00,
   0x20, 0x00, 0x00, 0x00, 0x08, 0x00, 0x00, 0x00, 0x00, 0x00, 0x00, 0x00,
   0x00, 0x00, 0x04, 0x00, 0x00, 0x00, 0x00, 0x00, 0x20, 0x00, 0x00, 0x00,
   0x02, 0x00, 0x00, 0x00, 0x00, 0x00, 0x07, 0x00, 0x00, 0x00, 0x01, 0x00,
   0x54, 0x00, 0x00, 0x80, 0x28, 0x00, 0x00, 0x80, 0x00, 0xc0, 0x81, 0x06,
   0x00, 0x40, 0x10, 0x00, 0x00, 0x40, 0x00, 0x10, 0x00, 0x10, 0x00, 0x20,
   0x30, 0x00, 0x00, 0x20, 0x00, 0x0c, 0x00, 0x40, 0x00, 0x10, 0x00, 0x00,
   0x00, 0x20, 0x00, 0x02, 0x00, 0x80, 0x00, 0x10, 0x00, 0x00, 0x00, 0x10,
   0x00, 0x01, 0x00, 0x00, 0x02, 0x10, 0x00, 0x00, 0x00, 0x00, 0x80, 0x00,
   0x00, 0x00, 0x04, 0x20, 0x00, 0x00, 0x00, 0x08, 0x40, 0x00, 0x00, 0x00,
   0x08, 0x20, 0x00, 0x00, 0x00, 0x04, 0x20, 0x00, 0x00, 0x00, 0x00, 0x40,
   0x00, 0x00, 0x00, 0x04, 0x10, 0x00, 0x00, 0x00, 0x10, 0x40, 0x00, 0x00,
   0x00, 0x00, 0x10, 0x00, 0x00, 0x00, 0x20, 0x00, 0x00, 0x00, 0x00, 0x02,
   0x08, 0x00, 0x00, 0x00, 0x20, 0x80, 0x00, 0x00, 0xc0, 0x6d, 0x6b, 0xdb,
   0xb6, 0x6d, 0xdb, 0x76, 0x0b, 0x00, 0x10, 0x00, 0x00, 0x00, 0x00, 0x00,
   0x00, 0x00, 0x10, 0x00, 0x00, 0x00, 0x00, 0x00, 0x00, 0x00, 0x00, 0x00,
   0x20, 0x00, 0x04, 0x00, 0x00, 0x00, 0x00, 0x00, 0x00, 0x00, 0x00, 0x00,
   0x04, 0x00, 0x00, 0x04, 0x00, 0x00, 0x00, 0x80, 0x40, 0x00, 0xe0, 0x17,
   0xcf, 0x1d, 0xbe, 0xf8, 0xe3, 0x72, 0x87, 0x00, 0x82, 0x07, 0xe3, 0x78,
   0x38, 0xe0, 0xc0, 0x38, 0x0e, 0x00, 0x00, 0x0f, 0xf3, 0x70, 0x38, 0xe0,
   0x61, 0x3c, 0x1e, 0x00, 0x02, 0x8f, 0xf1, 0xf0, 0x38, 0xc0, 0x23, 0x1c,
   0x9e, 0x00, 0x02, 0x9e, 0xf0, 0xf0, 0x38, 0xc8, 0x33, 0x1c, 0x1e, 0x00,
   0x02, 0xde, 0xe0, 0x78, 0x38, 0x88, 0x1f, 0x3c, 0x8e, 0x00, 0x00, 0x7c,
   0xc0, 0x39, 0x3c, 0x8e, 0x1f, 0x78, 0x0f, 0x00, 0x04, 0x28, 0x00, 0x0f,
   0xea, 0x0a, 0x05, 0xe0, 0x41, 0x00, 0x08, 0x00, 0x00, 0x00, 0x00, 0x00,
   0x00, 0x00, 0x00, 0x00, 0x00, 0x00, 0x00, 0x00, 0x00, 0x00, 0x00, 0x00,
   0x20, 0x00, 0x20, 0x00, 0x00, 0x00, 0x00, 0x00, 0x00, 0x00, 0x08, 0x00,
   0x80, 0x56, 0x5d, 0x55, 0x55, 0x55, 0x75, 0xd5, 0x02, 0x00, 0x00, 0x02,
   0x10, 0x00, 0x00, 0x00, 0x00, 0x80, 0x00, 0x00, 0x00, 0x04, 0x00, 0x00,
   0x00, 0x00, 0x10, 0x40, 0x00, 0x00, 0x00, 0x04, 0x20, 0x00, 0x00, 0x00,
   0x08, 0x40, 0x00, 0x00, 0x00, 0x08, 0x40, 0x00, 0x00, 0x00, 0x08, 0x00,
   0x00, 0x00, 0x00, 0x08, 0x80, 0x00, 0x00, 0x00, 0x02, 0x20, 0x00, 0x00,
   0x00, 0x10, 0x00, 0x01, 0x00, 0x00, 0x02, 0x10, 0x00, 0x00, 0x00, 0x10,
   0x00, 0x02, 0x00, 0x80, 0x00, 0x10, 0x00, 0x00, 0x00, 0x20, 0x00, 0x04,
   0x00, 0x40, 0x00, 0x08, 0x00, 0x00, 0x00, 0x40, 0x00, 0x30, 0x00, 0x10,
   0x00, 0x04, 0x00, 0x00, 0x00, 0x80, 0x00, 0xc0, 0x02, 0x07, 0x00, 0x04,
   0x00, 0x00, 0x00, 0x80, 0x00, 0x00, 0x58, 0x00, 0x00, 0x01, 0x00, 0x00,
   0x00, 0x00, 0x01, 0x00, 0x00, 0x00, 0x00, 0x01, 0x00, 0x00, 0x00, 0x00,
   0x04, 0x00, 0x00, 0x00, 0x40, 0x00, 0x00, 0x00, 0x00, 0x00, 0x08, 0x00,
   0x00, 0x00, 0x20, 0x00, 0x00, 0x00, 0x00, 0x00, 0x10, 0x00, 0x00, 0x00,
   0x10, 0x00, 0x00, 0x00, 0x00, 0x00, 0x60, 0x00, 0x00, 0x00, 0x0c, 0x00,
   0x00, 0x00, 0x00, 0x00, 0x80, 0x01, 0x00, 0x00, 0x02, 0x00, 0x00, 0x00,
   0x00, 0x00, 0x00, 0x06, 0x00, 0xc0, 0x00, 0x00, 0x00, 0x00, 0x00, 0x00,
   0x00, 0x70, 0x00, 0x1c, 0x00, 0x00, 0x00, 0x00, 0x00, 0x00, 0x00, 0x00,
   0xff, 0x00, 0x00, 0x00, 0x00, 0x00, 0x00, 0x00, 0x00, 0x00, 0x00, 0x00,
   0x00, 0x00, 0x00, 0x00 };
